# xmcd
#
# Track frame offsets: 
#        150
#        16272
#        31957
#        44620
#        57675
#        72870
#        87952
#        101490
#        116555
#        129800
#        144865
#        159862
#        176547
#        192727
#        206942
#        220777
#
# Disc length: 3176 seconds
#
# Revision: 3
# Processed by: cddbd v1.5.2PL0 Copyright (c) Steve Scherf et al.
# Submitted via: ExactAudioCopy v1.0b1
#
DISCID=e20c6610
DTITLE=Various Artist - More Hot Country Request
DYEAR=1988
DGENRE=Country
TTITLE0=Ricky Skaggs - Loves Gonna Get You Someday
TTITLE1=Rosanne Cash - Never You
TTITLE2=Sweethearts of the Rodeo - Since I've Found You
TTITLE3=O'Kanes - Oh Darlin
TTITLE4=Willie Nelson - Living in the Promised Land
TTITLE5=Merle Haggard - A Freind In California
TTITLE6=Ricky Skaggs - I've Got a New Heartache
TTITLE7=George Jones - Somebody Wants Me Out of the Way
TTITLE8=Exile - It'll Be Me
TTITLE9=Larry Gatlin - She Used To Be Somebody's Baby
TTITLE10=Micky Gilley - Doo Wah Days
TTITLE11=Janie Frickie - Always Have Always Will
TTITLE12=T.G.Sheppard - Strong Heart
TTITLE13=Mark Gray - Please Be Love
TTITLE14=John Conlee - Got My Heart Set on You
TTITLE15=Exile - Super Love
EXTD=YEAR: 1988
EXTT0=
EXTT1=
EXTT2=
EXTT3=
EXTT4=
EXTT5=
EXTT6=
EXTT7=
EXTT8=
EXTT9=
EXTT10=
EXTT11=
EXTT12=
EXTT13=
EXTT14=
EXTT15=
PLAYORDER=
